<svg version="1.1" id="Layer_1" xmlns="http://www.w3.org/2000/svg" xmlns:xlink="http://www.w3.org/1999/xlink" x="0px" y="0px" viewBox="0 0 491.2 121.4" style="enable-background:new 0 0 491.2 121.4;" xml:space="preserve">
<style type="text/css">
	.st0{fill:#ffffff;}
</style>
    <g>
	<path class="st0" d="M178.8,35.5v9.9h-21.1v39.7h-14.1V45.4h-21.1v-9.9H178.8z"></path>
        <path class="st0" d="M175.4,66.2c0-2.1,0.5-4.3,1.5-6.7c1-2.4,2.5-4.7,4.6-6.7c2.1-2.1,4.9-3.8,8.2-5.2c3.4-1.4,7.4-2.1,12.1-2.1
		c4.7,0,8.6,0.7,11.8,2.1c3.2,1.4,5.7,3.2,7.7,5.4c1.9,2.2,3.3,4.6,4.2,7.2c0.8,2.6,1.2,5.2,1.2,7.7h-10.1h-28.8
		c0.2,1.7,0.7,3.1,1.5,4.3c0.8,1.2,1.8,2.3,3.1,3.1c1.3,0.8,2.7,1.5,4.3,1.9s3.3,0.6,5.1,0.6c3.2,0,5.8-0.4,7.9-1.2
		c2.1-0.8,3.6-2.1,4.5-3.8h12.4c-0.8,2-1.9,3.9-3.3,5.6c-1.4,1.7-3.2,3.2-5.2,4.4s-4.4,2.2-7.2,2.9c-2.7,0.7-5.8,1.1-9.1,1.1
		c-4.4,0-8.3-0.5-11.6-1.6c-3.3-1.1-6.1-2.6-8.3-4.4c-2.2-1.9-3.9-4.1-5-6.6C176,71.7,175.4,69,175.4,66.2z M201.9,54.5
		c-3.1,0-5.8,0.6-8.2,1.7c-2.3,1.1-4,2.8-5,5h25.6c-0.6-1.2-1.4-2.3-2.5-3.3c-0.9-0.9-2.2-1.6-3.8-2.3
		C206.4,54.9,204.4,54.5,201.9,54.5z"></path>
        <path class="st0" d="M232.7,85.2V30.5H246v54.6H232.7z"></path>
        <path class="st0" d="M251.9,66.2c0-2.1,0.5-4.3,1.5-6.7c1-2.4,2.5-4.7,4.6-6.7c2.1-2.1,4.9-3.8,8.2-5.2c3.4-1.4,7.4-2.1,12.1-2.1
		c4.7,0,8.6,0.7,11.8,2.1c3.2,1.4,5.7,3.2,7.7,5.4c1.9,2.2,3.3,4.6,4.2,7.2c0.8,2.6,1.2,5.2,1.2,7.7h-10.1h-28.8
		c0.2,1.7,0.7,3.1,1.5,4.3c0.8,1.2,1.8,2.3,3.1,3.1c1.3,0.8,2.7,1.5,4.3,1.9c1.6,0.4,3.3,0.6,5.1,0.6c3.2,0,5.8-0.4,7.9-1.2
		c2.1-0.8,3.6-2.1,4.5-3.8h12.4c-0.8,2-1.9,3.9-3.3,5.6c-1.4,1.7-3.2,3.2-5.2,4.4s-4.4,2.2-7.2,2.9c-2.7,0.7-5.8,1.1-9.1,1.1
		c-4.4,0-8.3-0.5-11.6-1.6c-3.3-1.1-6.1-2.6-8.3-4.4c-2.2-1.9-3.9-4.1-5-6.6C252.5,71.7,251.9,69,251.9,66.2z M278.4,54.5
		c-3.1,0-5.8,0.6-8.2,1.7c-2.3,1.1-4,2.8-5,5h25.6c-0.6-1.2-1.4-2.3-2.5-3.3c-0.9-0.9-2.2-1.6-3.8-2.3
		C282.9,54.9,280.9,54.5,278.4,54.5z"></path>
        <path class="st0" d="M340.7,86.8c-8,0-14.1-2.5-18.2-7.5v22.4h-13.3V47.1h13.3v5.8c4.1-5,10.2-7.5,18.2-7.5c3.7,0,6.9,0.4,9.4,1.2
		c2.5,0.8,4.6,2,6.1,3.5c1.6,1.6,2.7,3.5,3.3,5.7c0.7,2.3,1,4.9,1,7.7v5c0,2.9-0.3,5.5-1,7.7c-0.7,2.2-1.8,4.2-3.3,5.7
		c-1.6,1.6-3.6,2.7-6.1,3.5C347.6,86.4,344.4,86.8,340.7,86.8z M337.4,77.7c2,0,3.6-0.2,4.9-0.7s2.3-1.1,3-2
		c0.7-0.8,1.3-1.8,1.6-2.9c0.3-1.1,0.5-2.3,0.5-3.5v-5c0-1.2-0.2-2.4-0.5-3.5c-0.3-1.1-0.8-2.1-1.6-2.9c-0.7-0.8-1.7-1.5-3-2
		s-2.9-0.7-4.9-0.7c-5,0-8.7,0.9-11.2,2.7c-2.5,1.8-3.7,4.8-3.7,8.9C322.5,73.9,327.5,77.7,337.4,77.7z"></path>
        <path class="st0" d="M391.1,86.8c-3.8,0-7.3-0.5-10.5-1.6s-5.9-2.6-8.1-4.4c-2.3-1.9-4-4.1-5.3-6.6c-1.2-2.5-1.8-5.2-1.8-8
		s0.7-5.5,2-8.1c1.3-2.5,3.2-4.7,5.5-6.6c2.3-1.9,5.1-3.3,8.2-4.4c3.1-1.1,6.4-1.6,9.9-1.6c3.8,0,7.2,0.5,10.4,1.6
		c3.1,1.1,5.8,2.6,8.1,4.4c2.2,1.9,4,4.1,5.3,6.6c1.3,2.5,1.9,5.2,1.9,8.1s-0.7,5.5-2,8c-1.3,2.5-3.1,4.7-5.5,6.6
		c-2.3,1.9-5,3.3-8.2,4.4C398,86.3,394.7,86.8,391.1,86.8z M378.7,66.2c0,1.6,0.3,3.1,0.8,4.5c0.5,1.4,1.3,2.6,2.4,3.7
		c1.1,1,2.4,1.9,3.9,2.5c1.5,0.6,3.3,0.9,5.3,0.9c2.1,0,4-0.3,5.5-0.9c1.6-0.6,2.9-1.4,3.9-2.4c1-1,1.8-2.3,2.3-3.7
		c0.5-1.4,0.7-2.9,0.7-4.5c0-1.6-0.2-3.1-0.7-4.5c-0.5-1.4-1.2-2.6-2.2-3.7c-1-1.1-2.3-1.9-3.9-2.5c-1.6-0.6-3.4-0.9-5.6-0.9
		c-4.2,0-7.3,1.1-9.3,3.2C379.8,59.9,378.7,62.7,378.7,66.2z"></path>
        <path class="st0" d="M478.8,54.5h12.4v-7.4h-12.4v0V30.5h-13.3v16.5v0h-7.5v7.4h7.5v0v14.1c0,2.7,0,5,0.1,6.9
		c0.1,1.9,0.4,3.5,0.9,4.7c0.5,1.2,1.3,2.2,2.3,2.8c1,0.7,2.5,1.1,4.4,1.5c1.9,0.3,4.3,0.5,7.2,0.6c2.9,0.1,6.5,0.1,10.7,0.1v-8.7
		c-3,0-5.4,0-7-0.1c-1.7-0.1-2.9-0.4-3.7-0.9c-0.8-0.5-1.3-1.3-1.5-2.3c-0.2-1.1-0.2-2.6-0.2-4.5V54.5L478.8,54.5z"></path>
        <path class="st0" d="M446.9,47.1c-4.1,0-7.9,1.4-10.9,3.7v-3.7h-13.3v38.1H436V67.8v-2.4c0.1-6,4.9-10.8,10.9-10.8h6.7v-7.4H446.9z
		"></path>
        <path class="st0" d="M16.3,93.5h2.5l0,0.1c-0.3,2.8-0.5,5.4-0.5,7.8l0,0.1H4.9l0.1-0.2L23.5,48H0l11.1-30.3h41.7L52.6,18
		c-1.9,2.5-3.7,5.1-5.5,7.8l0,0.1H16.8l-5.5,14.1h23.5l-0.1,0.2L16.3,93.5z M75.2,17.8l-0.1,0.1c-0.2,0.2-0.4,0.4-0.6,0.6
		c-2,2.1-4,4.5-6.1,7.1l-0.2,0.2l21.4,0l-5.6,14.1l-25.2,0L40.4,93.5h-4.7l0,0.1c-0.4,3-0.7,5.6-0.6,7.8l0,0.1l11.1,0l0-0.1
		c0.3-0.8,0.3-0.9,0.5-1.3l0.1-0.5L64.7,48h24.9l12.1-30.3H75.2z M71.7,68.4C64.4,83,55.9,95.7,47.8,104.2
		c-8.1,8.5-13.3,10.2-15.4,8.9c-2.2-1.3-3.7-6.9-1.6-19c2.1-12,7.3-26.6,14.5-41.2c7.3-14.6,15.7-27.3,23.8-35.7
		C77.4,8.7,81.8,7.9,83.3,8l0.2,0c0.4,0,0.8,0.1,1.1,0.3c1.1,0.6,1.9,2.3,2.3,4.7l0,0.1h7.4l0-0.1c-0.7-5.8-2.7-9.7-6.1-11.7
		C86.7,0.4,85,0,83.3,0c-5.4,0-11.8,3.9-19.2,11.6c-8.6,9-17.6,22.4-25.2,37.7c-7.5,15.1-13.1,30.9-15.3,43.5
		c-3.2,18.2,1.1,24.9,5.2,27.3c1.2,0.7,2.5,1.1,3.9,1.3c0.2,0,0.4,0,0.5,0c0.2,0,0.3,0,0.5,0c5.4,0,11.8-3.9,19.1-11.6
		c8.6-9,17.6-22.4,25.2-37.7c3.2-6.5,6.1-13,8.5-19.4h-7.9C76.6,57.9,74.3,63.2,71.7,68.4z"></path>
</g>
</svg>
